<svg width="53" height="59" viewBox="0 0 90 96" fill="none" xmlns="http://www.w3.org/2000/svg">
<g filter="url(#filter0_d_105_801)">
<path d="M35.7187 14C33.0609 15.7761 30.8421 17.2893 29.7466 18.5386C29.1247 19.2475 28.8519 19.8332 28.8163 20.3685C28.7807 20.9033 28.955 21.5067 29.6008 22.3421L29.7495 22.5343C32.1825 22.076 34.9909 21.8562 38.0332 21.9287C42.1254 22.0263 46.0011 22.6358 49.2587 23.6133C49.0613 23.2412 48.8654 22.8938 48.6517 22.5924C47.8784 21.5016 47.0723 20.8139 44.631 20.9529L44.5632 20.9569L44.496 20.952C40.2461 20.6478 38.1265 19.2852 37.0921 17.5517C36.3279 16.2705 36.0868 15.0158 35.7189 14.0003L35.7187 14ZM37.5684 24.0335C33.1848 24.0158 29.3719 24.6525 26.7575 25.6762C25.3632 26.2222 24.3159 26.8825 23.7015 27.5477C23.0874 28.2131 22.9193 28.8173 23.0314 29.3829C23.1254 29.8575 23.4335 30.3697 24.0515 30.9359C27.3652 29.7234 31.3759 28.7975 35.8184 28.2966C42.249 27.5711 48.3692 27.8718 53.1746 28.9871C54.1866 29.2218 55.1403 29.4926 56.0294 29.8011C55.8348 29.3375 55.4335 28.838 54.7378 28.2867C53.8529 27.5857 52.5326 26.8692 50.9076 26.2511C47.6578 25.0154 43.2064 24.1589 38.4525 24.0458C38.1552 24.0386 37.8606 24.0344 37.5685 24.0334L37.5684 24.0335ZM43.2485 29.9578C41.0653 29.9512 38.778 30.0716 36.4484 30.3343C30.2371 31.0348 24.9083 32.6154 21.3904 34.5406C19.6315 35.503 18.3314 36.555 17.5909 37.563C16.9719 38.4055 16.7493 39.1696 16.8397 39.8746C17.3652 39.6848 17.8952 39.5077 18.4292 39.3436C23.5793 37.7589 30.548 36.8097 38.2429 36.8097C45.9377 36.8097 52.9065 37.7589 58.0565 39.3436C58.2226 39.3949 58.3868 39.4467 58.5492 39.4992C59.1253 39.025 59.592 38.5469 59.9363 38.0784C60.6767 37.0702 60.8519 36.1736 60.5995 35.3573C60.347 34.541 59.648 33.7432 58.355 32.9647C57.0619 32.1861 55.221 31.4886 53.0053 30.9743C50.2357 30.3314 46.8868 29.9684 43.2484 29.9578H43.2485ZM38.2429 38.6959C30.7931 38.6959 24.0507 39.6355 19.276 41.1045C16.8885 41.8393 14.9987 42.7098 13.7692 43.6042C12.5399 44.4985 12 45.3568 12 46.1904C12 47.024 12.5399 47.8822 13.7692 48.7766C13.7785 48.7832 13.7882 48.7898 13.7973 48.7964L21.3709 45.0098L29.7056 49.2299L38.2521 45.0095L46.4734 49.2299L55.1238 45.0141L62.6885 48.7965C62.6975 48.7899 62.7074 48.7833 62.7165 48.7767C63.9459 47.8822 64.4857 47.024 64.4857 46.1904C64.4857 45.3568 63.9459 44.4985 62.7165 43.6042C61.487 42.7098 59.5973 41.8393 57.2097 41.1045C52.4349 39.6355 45.6925 38.6959 38.2429 38.6959ZM55.1119 47.3668L47.6705 50.9932L45.6175 67.416L43.5246 67.1523L45.5292 51.1164L38.2336 47.3712L30.9389 50.9738L32.9613 67.1523L30.8684 67.416L28.8354 51.1537L21.3648 47.371L14.2428 50.9321L22.1068 72.5576H54.3789L62.2429 50.9321L55.1119 47.3666V47.3668Z" fill="url(#paint0_linear_105_801)"/>
</g>
<defs>
<filter id="filter0_d_105_801" x="0.799999" y="0.799999" filterUnits="userSpaceOnUse" color-interpolation-filters="sRGB">
<feFlood flood-opacity="0" result="BackgroundImageFix"/>
<feColorMatrix in="SourceAlpha" type="matrix" values="0 0 0 0 0 0 0 0 0 0 0 0 0 0 0 0 0 0 127 0" result="hardAlpha"/>
<feOffset dx="7" dy="5"/>
<feGaussianBlur stdDeviation="9.1"/>
<feComposite in2="hardAlpha" operator="out"/>
<feColorMatrix type="matrix" values="0 0 0 0 0 0 0 0 0 0 0 0 0 0 0 0 0 0 0.5 0"/>
<feBlend mode="normal" in2="BackgroundImageFix" result="effect1_dropShadow_105_801"/>
<feBlend mode="normal" in="SourceGraphic" in2="effect1_dropShadow_105_801" result="shape"/>
</filter>
<linearGradient id="paint0_linear_105_801" x1="38.2429" y1="14" x2="38.2429" y2="72.5576" gradientUnits="userSpaceOnUse">
<stop stop-color="#F2E3FF"/>
<stop offset="1" stop-color="white"/>
</linearGradient>
</defs>
</svg>
