<svg width="90" height="96" viewBox="0 0 90 96" fill="none" xmlns="http://www.w3.org/2000/svg">
<g filter="url(#filter0_d_105_183)">
<path d="M35.4758 13.5284C32.818 15.3045 30.5992 16.8177 29.5036 18.067C28.8818 18.7758 28.609 19.3616 28.5734 19.8968C28.5378 20.4317 28.7121 21.0351 29.3578 21.8704L29.5065 22.0626C31.9396 21.6044 34.748 21.3846 37.7903 21.4571C41.8825 21.5547 45.7582 22.1642 49.0158 23.1417C48.8184 22.7696 48.6225 22.4222 48.4088 22.1208C47.6354 21.03 46.8294 20.3423 44.3881 20.4813L44.3203 20.4852L44.2531 20.4804C40.0032 20.1762 37.8835 18.8136 36.8492 17.08C36.085 15.7989 35.8439 14.5442 35.4759 13.5286L35.4758 13.5284ZM37.3255 23.5619C32.9419 23.5442 29.129 24.1809 26.5145 25.2046C25.1202 25.7506 24.0729 26.4109 23.4586 27.0761C22.8445 27.7415 22.6764 28.3457 22.7885 28.9113C22.8825 29.3859 23.1906 29.8981 23.8086 30.4643C27.1223 29.2518 31.133 28.3259 35.5755 27.8249C42.006 27.0994 48.1263 27.4002 52.9317 28.5155C53.9437 28.7502 54.8974 29.021 55.7865 29.3294C55.5919 28.8659 55.1906 28.3664 54.4949 27.815C53.61 27.1141 52.2896 26.3975 50.6646 25.7795C47.4149 24.5438 42.9634 23.6873 38.2096 23.5741C37.9123 23.5669 37.6177 23.5628 37.3256 23.5618L37.3255 23.5619ZM43.0056 29.4862C40.8224 29.4796 38.5351 29.6 36.2055 29.8627C29.9942 30.5632 24.6654 32.1437 21.1475 34.0689C19.3885 35.0314 18.0885 36.0834 17.348 37.0914C16.729 37.9338 16.5063 38.698 16.5968 39.403C17.1223 39.2132 17.6523 39.0361 18.1863 38.872C23.3364 37.2873 30.3051 36.3381 37.9999 36.3381C45.6948 36.3381 52.6635 37.2873 57.8136 38.872C57.9797 38.9232 58.1439 38.9751 58.3062 39.0276C58.8824 38.5533 59.3491 38.0753 59.6934 37.6068C60.4338 36.5986 60.609 35.702 60.3566 34.8857C60.1041 34.0693 59.4051 33.2716 58.112 32.4931C56.819 31.7145 54.978 31.0169 52.7624 30.5027C49.9928 29.8598 46.6439 29.4967 43.0055 29.4862H43.0056ZM37.9999 38.2243C30.5502 38.2243 23.8078 39.1639 19.0331 40.6329C16.6456 41.3676 14.7558 42.2382 13.5263 43.1325C12.2969 44.0269 11.7571 44.8852 11.7571 45.7188C11.7571 46.5524 12.2969 47.4106 13.5263 48.305C13.5355 48.3116 13.5453 48.3182 13.5544 48.3248L21.128 44.5382L29.4626 48.7582L38.0092 44.5379L46.2305 48.7582L54.8809 44.5425L62.4456 48.3249C62.4546 48.3183 62.4645 48.3117 62.4736 48.3051C63.7029 47.4106 64.2428 46.5524 64.2428 45.7188C64.2428 44.8852 63.7029 44.0269 62.4736 43.1325C61.2441 42.2382 59.3543 41.3676 56.9668 40.6329C52.192 39.1639 45.4496 38.2243 37.9999 38.2243ZM54.869 46.8951L47.4275 50.5215L45.3746 66.9443L43.2817 66.6807L45.2863 50.6448L37.9907 46.8996L30.696 50.5022L32.7183 66.6807L30.6254 66.9443L28.5925 50.6821L21.1219 46.8994L13.9999 50.4605L21.8639 72.0859H54.136L62 50.4605L54.869 46.895V46.8951Z" fill="url(#paint0_linear_105_183)"/>
</g>
<defs>
<filter id="filter0_d_105_183" x="0.557079" y="0.328381" width="88.8857" height="94.9576" filterUnits="userSpaceOnUse" color-interpolation-filters="sRGB">
<feFlood flood-opacity="0" result="BackgroundImageFix"/>
<feColorMatrix in="SourceAlpha" type="matrix" values="0 0 0 0 0 0 0 0 0 0 0 0 0 0 0 0 0 0 127 0" result="hardAlpha"/>
<feOffset dx="7" dy="5"/>
<feGaussianBlur stdDeviation="9.1"/>
<feComposite in2="hardAlpha" operator="out"/>
<feColorMatrix type="matrix" values="0 0 0 0 0 0 0 0 0 0 0 0 0 0 0 0 0 0 0.5 0"/>
<feBlend mode="normal" in2="BackgroundImageFix" result="effect1_dropShadow_105_183"/>
<feBlend mode="normal" in="SourceGraphic" in2="effect1_dropShadow_105_183" result="shape"/>
</filter>
<linearGradient id="paint0_linear_105_183" x1="37.9999" y1="13.5284" x2="37.9999" y2="72.0859" gradientUnits="userSpaceOnUse">
<stop stop-color="#F2E3FF"/>
<stop offset="1" stop-color="white"/>
</linearGradient>
</defs>
</svg>
