<svg width="113" height="119" viewBox="0 0 113 119" fill="none" xmlns="http://www.w3.org/2000/svg">
<path d="M51.0656 0C45.3434 3.60936 40.5664 6.68449 38.2078 9.22326C36.8689 10.6638 36.2816 11.8542 36.205 12.9419C36.1284 14.0289 36.5036 15.2551 37.8938 16.9526L38.214 17.3432C43.4522 16.412 49.4986 15.9653 56.0487 16.1127C64.859 16.311 73.2033 17.5495 80.2167 19.5361C79.7918 18.7798 79.37 18.0738 78.9099 17.4614C77.2449 15.2447 75.5095 13.8472 70.2534 14.1296L70.1075 14.1376L69.9627 14.1277C60.8129 13.5096 56.2494 10.7405 54.0224 7.21764C52.3772 4.61404 51.8578 2.06375 51.0656 0ZM55.0479 20.39C45.6103 20.3541 37.4011 21.6478 31.7723 23.7282C28.7704 24.8379 26.5156 26.1796 25.1929 27.5315C23.8708 28.8837 23.5089 30.1115 23.7502 31.2609C23.9525 32.2254 24.6159 33.2663 25.9465 34.417C33.0808 31.9529 41.7157 30.0714 51.2802 29.0533C65.125 27.5789 78.3016 28.1901 88.6475 30.4566C90.8263 30.9335 92.8795 31.4838 94.7938 32.1107C94.3748 31.1687 93.5108 30.1536 92.013 29.0332C90.1079 27.6087 87.2652 26.1526 83.7666 24.8966C76.77 22.3854 67.1862 20.6448 56.9513 20.4149C56.3113 20.4002 55.6767 20.3921 55.0479 20.39ZM67.277 32.4293C62.5767 32.4159 57.6521 32.6605 52.6367 33.1945C39.2639 34.6179 27.7912 37.8299 20.2172 41.7423C16.4303 43.6981 13.6313 45.836 12.037 47.8845C10.7044 49.5965 10.225 51.1493 10.4197 52.5822C11.551 52.1964 12.6921 51.8365 13.8419 51.503C24.9298 48.2826 39.9332 46.3537 56.5 46.3537C73.0668 46.3537 88.0702 48.2826 99.1581 51.503C99.5157 51.6071 99.8693 51.7125 100.219 51.8191C101.459 50.8554 102.464 49.884 103.205 48.9318C104.799 46.8831 105.177 45.061 104.633 43.402C104.089 41.7431 102.585 40.1219 99.8007 38.5399C97.0168 36.9576 93.0533 35.5401 88.2831 34.4949C82.3202 33.1886 75.1104 32.4507 67.277 32.4293ZM56.5 50.1867C40.4609 50.1867 25.9448 52.0962 15.665 55.0815C10.5247 56.5746 6.45619 58.3437 3.80911 60.1612C1.16232 61.9788 0 63.7229 0 65.4169C0 67.1109 1.16232 68.8551 3.80911 70.6726C3.82898 70.686 3.84998 70.6994 3.86957 70.7128L20.1752 63.0177L38.1195 71.5937L56.5199 63.0172L74.22 71.5937L92.8441 63.0266L109.131 70.7131C109.15 70.6997 109.171 70.6863 109.191 70.6729C111.838 68.8551 113 67.1109 113 65.4169C113 63.7229 111.838 61.9788 109.191 60.1612C106.544 58.3437 102.475 56.5746 97.335 55.0815C87.0549 52.0962 72.5388 50.1867 56.5 50.1867ZM92.8185 67.8075L76.7973 75.1771L72.3773 108.551L67.8714 108.015L72.1872 75.4276L56.4801 67.8166L40.7748 75.1377L45.1289 108.015L40.6229 108.551L36.2462 75.5034L20.1622 67.8161L4.82866 75.053L21.7596 119H91.2404L108.171 75.053L92.8185 67.8075Z" fill="white"/>
</svg>
